<svg xmlns="http://www.w3.org/2000/svg" viewBox="0 0 256 256" role="img" aria-labelledby="title desc">
  <title id="title">RedBeat logo</title>
  <desc id="desc">Circular neon vinyl style RedBeat logo with audio waves and letter R on transparent background.</desc>
  <defs>
    <radialGradient id="bgDisc" cx="38%" cy="34%" r="70%">
      <stop offset="0%" stop-color="#2b0a0f"/>
      <stop offset="48%" stop-color="#10070a"/>
      <stop offset="72%" stop-color="#09090c"/>
      <stop offset="100%" stop-color="#020203"/>
    </radialGradient>
    <radialGradient id="labelGrad" cx="35%" cy="30%" r="80%">
      <stop offset="0%" stop-color="#ff596d"/>
      <stop offset="55%" stop-color="#ff1730"/>
      <stop offset="100%" stop-color="#ca0619"/>
    </radialGradient>
    <linearGradient id="rGrad" x1="0" y1="0" x2="1" y2="1">
      <stop offset="0%" stop-color="#ffffff"/>
      <stop offset="100%" stop-color="#ffe8eb"/>
    </linearGradient>
    <linearGradient id="shine" x1="0" y1="0" x2="1" y2="1">
      <stop offset="0%" stop-color="#ffffff" stop-opacity="0.55"/>
      <stop offset="100%" stop-color="#ffffff" stop-opacity="0"/>
    </linearGradient>
    <filter id="softGlow" x="-50%" y="-50%" width="200%" height="200%">
      <feGaussianBlur stdDeviation="8" result="blur"/>
      <feColorMatrix in="blur" type="matrix" values="1 0 0 0 0  0 0.2 0 0 0  0 0 0 0 0  0 0 0 0.75 0" result="redBlur"/>
      <feMerge>
        <feMergeNode in="redBlur"/>
        <feMergeNode in="SourceGraphic"/>
      </feMerge>
    </filter>
    <filter id="microGlow" x="-50%" y="-50%" width="200%" height="200%">
      <feGaussianBlur stdDeviation="2.6" result="blur"/>
      <feMerge>
        <feMergeNode in="blur"/>
        <feMergeNode in="SourceGraphic"/>
      </feMerge>
    </filter>
    <clipPath id="discClip">
      <circle cx="128" cy="128" r="108"/>
    </clipPath>
  </defs>

  <circle cx="128" cy="128" r="108" fill="url(#bgDisc)" filter="url(#softGlow)"/>

  <g clip-path="url(#discClip)" opacity="0.42">
    <ellipse cx="128" cy="128" rx="98" ry="98" fill="none" stroke="#ffffff" stroke-opacity="0.06" stroke-width="3"/>
    <ellipse cx="128" cy="128" rx="90" ry="90" fill="none" stroke="#ffffff" stroke-opacity="0.05" stroke-width="2.5"/>
    <ellipse cx="128" cy="128" rx="82" ry="82" fill="none" stroke="#ffffff" stroke-opacity="0.05" stroke-width="2.5"/>
    <ellipse cx="128" cy="128" rx="74" ry="74" fill="none" stroke="#ffffff" stroke-opacity="0.05" stroke-width="2"/>
    <ellipse cx="128" cy="128" rx="66" ry="66" fill="none" stroke="#ffffff" stroke-opacity="0.05" stroke-width="2"/>
    <ellipse cx="128" cy="128" rx="58" ry="58" fill="none" stroke="#ffffff" stroke-opacity="0.05" stroke-width="2"/>
  </g>

  <path d="M86 72c17-17 43-28 72-28 19 0 37 5 52 14" fill="none" stroke="#ff1b31" stroke-linecap="round" stroke-width="8" opacity="0.9" filter="url(#microGlow)"/>
  <path d="M74 92c14-12 34-19 54-19" fill="none" stroke="#ff475a" stroke-linecap="round" stroke-width="6" opacity="0.9"/>
  <path d="M166 58c16 2 31 8 43 17" fill="none" stroke="#ff354a" stroke-linecap="round" stroke-width="6" opacity="0.95"/>

  <circle cx="128" cy="128" r="46" fill="url(#labelGrad)" filter="url(#microGlow)"/>
  <circle cx="128" cy="128" r="12" fill="#08080a" opacity="0.55"/>
  <path d="M79 74c13-13 30-21 49-24" fill="none" stroke="#ff7080" stroke-linecap="round" stroke-width="3" opacity="0.55"/>

  <path d="M111 94h18c18 0 28 8 28 22 0 9-5 16-14 20l16 26h-20l-12-21h-2v21h-14V94Zm14 12v24h4c9 0 14-4 14-12s-5-12-14-12h-4Z" fill="url(#rGrad)"/>

  <path d="M54 184c17 16 41 26 66 26" fill="none" stroke="#ff1730" stroke-linecap="round" stroke-width="7" opacity="0.9" filter="url(#microGlow)"/>
  <path d="M149 209c18-2 35-9 49-20" fill="none" stroke="#ff3b50" stroke-linecap="round" stroke-width="6" opacity="0.9"/>
  <path d="M197 187c8-8 14-16 19-26" fill="none" stroke="#ff6b7c" stroke-linecap="round" stroke-width="4" opacity="0.8"/>

  <path d="M62 67c24-28 59-45 98-45 37 0 70 15 94 40" fill="none" stroke="url(#shine)" stroke-width="10" stroke-linecap="round" opacity="0.55"/>
</svg>
